<?xml version="1.0" encoding="UTF-8" standalone="no"?>
<!-- Created with Inkscape (http://www.inkscape.org/) -->

<svg
   width="512"
   height="512"
   viewBox="0 0 135.46666 135.46667"
   version="1.1"
   id="svg8"
   sodipodi:docname="tidal_icons.svg"
   xml:space="preserve"
   inkscape:export-filename="personal.png"
   inkscape:export-xdpi="96"
   inkscape:export-ydpi="96"
   inkscape:version="1.3.2 (091e20e, 2023-11-25)"
   xmlns:inkscape="http://www.inkscape.org/namespaces/inkscape"
   xmlns:sodipodi="http://sodipodi.sourceforge.net/DTD/sodipodi-0.dtd"
   xmlns:xlink="http://www.w3.org/1999/xlink"
   xmlns="http://www.w3.org/2000/svg"
   xmlns:svg="http://www.w3.org/2000/svg"
   xmlns:rdf="http://www.w3.org/1999/02/22-rdf-syntax-ns#"
   xmlns:cc="http://creativecommons.org/ns#"
   xmlns:dc="http://purl.org/dc/elements/1.1/"><sodipodi:namedview
     id="namedview1"
     pagecolor="#ffffff"
     bordercolor="#000000"
     borderopacity="0.25"
     inkscape:showpageshadow="2"
     inkscape:pageopacity="0.0"
     inkscape:pagecheckerboard="0"
     inkscape:deskcolor="#d1d1d1"
     inkscape:zoom="1"
     inkscape:cx="256.5"
     inkscape:cy="256"
     inkscape:window-width="2560"
     inkscape:window-height="1387"
     inkscape:window-x="0"
     inkscape:window-y="25"
     inkscape:window-maximized="1"
     inkscape:current-layer="layer1"
     showgrid="false" /><defs
     id="defs2"><linearGradient
       id="linearGradient1075"><stop
         style="stop-color:#19191e;stop-opacity:1"
         offset="0"
         id="stop1071" /><stop
         style="stop-color:#65656f;stop-opacity:1"
         offset="1"
         id="stop1073" /></linearGradient><linearGradient
       id="linearGradient893"><stop
         style="stop-color:#e6e6e6;stop-opacity:1;"
         offset="0"
         id="stop891" /></linearGradient><filter
       style="color-interpolation-filters:sRGB"
       id="filter999"
       x="-0.096012189"
       y="-0.096012189"
       width="1.1691643"
       height="1.1691643"><feFlood
         flood-opacity="1"
         flood-color="rgb(150,150,150)"
         result="flood"
         id="feFlood989" /><feComposite
         in="flood"
         in2="SourceGraphic"
         operator="out"
         result="composite1"
         id="feComposite991" /><feGaussianBlur
         in="composite1"
         stdDeviation="4"
         result="blur"
         id="feGaussianBlur993" /><feOffset
         dx="-3"
         dy="-3"
         result="offset"
         id="feOffset995" /><feComposite
         in="offset"
         in2="SourceGraphic"
         operator="in"
         result="composite2"
         id="feComposite997" /></filter><filter
       style="color-interpolation-filters:sRGB"
       id="filter1069"
       x="-0.063454036"
       y="-0.051353116"
       width="1.1269081"
       height="1.1080289"><feOffset
         dy="0.5"
         dx="0"
         id="feOffset1059"
         result="result2" /><feGaussianBlur
         stdDeviation="2.0099999999999998"
         result="blur"
         id="feGaussianBlur1061" /><feFlood
         flood-color="rgb(0,0,0)"
         flood-opacity="1"
         result="flood"
         id="feFlood1063" /><feComposite
         in="flood"
         in2="SourceGraphic"
         operator="in"
         result="composite"
         id="feComposite1065" /><feBlend
         in2="composite"
         mode="normal"
         id="feBlend1067"
         in="blur"
         result="result1" /><feComposite
         id="feComposite1081"
         in2="SourceGraphic"
         in="result1"
         operator="in" /></filter><linearGradient
       xlink:href="#linearGradient1075"
       id="linearGradient1077"
       x1="86.521004"
       y1="296.06345"
       x2="86.521004"
       y2="177.75693"
       gradientUnits="userSpaceOnUse" /><linearGradient
       xlink:href="#linearGradient1075"
       id="linearGradient2"
       gradientUnits="userSpaceOnUse"
       x1="86.521004"
       y1="296.06345"
       x2="86.521004"
       y2="177.75693"
       gradientTransform="matrix(0.26458333,0,0,0.26458333,0,161.53332)" /><filter
       style="color-interpolation-filters:sRGB"
       id="filter1069-2"
       x="-0.052598917"
       y="-0.049044069"
       width="1.1051978"
       height="1.1031715"><feOffset
         dy="0.5"
         dx="0"
         id="feOffset1059-3"
         result="result2" /><feGaussianBlur
         stdDeviation="2.0099999999999998"
         result="blur"
         id="feGaussianBlur1061-9" /><feFlood
         flood-color="rgb(0,0,0)"
         flood-opacity="1"
         result="flood"
         id="feFlood1063-9" /><feComposite
         in="flood"
         in2="SourceGraphic"
         operator="in"
         result="composite"
         id="feComposite1065-7" /><feBlend
         in2="composite"
         mode="normal"
         id="feBlend1067-0"
         in="blur"
         result="result1" /><feComposite
         id="feComposite1081-3"
         in2="SourceGraphic"
         in="result1"
         operator="in" /></filter><linearGradient
       inkscape:collect="always"
       xlink:href="#linearGradient1075"
       id="linearGradient1"
       gradientUnits="userSpaceOnUse"
       x1="86.521004"
       y1="296.06345"
       x2="86.521004"
       y2="177.75693"
       gradientTransform="translate(5.2916669,164.70834)" /><filter
       style="color-interpolation-filters:sRGB"
       id="filter1069-9"
       x="-0.042973171"
       y="-0.044576539"
       width="1.0859463"
       height="1.0937734"><feOffset
         dy="0.5"
         dx="0"
         id="feOffset1059-1"
         result="result2" /><feGaussianBlur
         stdDeviation="2.0099999999999998"
         result="blur"
         id="feGaussianBlur1061-7" /><feFlood
         flood-color="rgb(0,0,0)"
         flood-opacity="1"
         result="flood"
         id="feFlood1063-2" /><feComposite
         in="flood"
         in2="SourceGraphic"
         operator="in"
         result="composite"
         id="feComposite1065-3" /><feBlend
         in2="composite"
         mode="normal"
         id="feBlend1067-6"
         in="blur"
         result="result1" /><feComposite
         id="feComposite1081-5"
         in2="SourceGraphic"
         in="result1"
         operator="in" /></filter><filter
       style="color-interpolation-filters:sRGB"
       id="filter1069-94"
       x="-0.052598917"
       y="-0.049044069"
       width="1.1051978"
       height="1.1031715"><feOffset
         dy="0.5"
         dx="0"
         id="feOffset1059-13"
         result="result2" /><feGaussianBlur
         stdDeviation="2.0099999999999998"
         result="blur"
         id="feGaussianBlur1061-78" /><feFlood
         flood-color="rgb(0,0,0)"
         flood-opacity="1"
         result="flood"
         id="feFlood1063-8" /><feComposite
         in="flood"
         in2="SourceGraphic"
         operator="in"
         result="composite"
         id="feComposite1065-38" /><feBlend
         in2="composite"
         mode="normal"
         id="feBlend1067-1"
         in="blur"
         result="result1" /><feComposite
         id="feComposite1081-53"
         in2="SourceGraphic"
         in="result1"
         operator="in" /></filter><filter
       style="color-interpolation-filters:sRGB"
       id="filter1069-4"
       x="-0.052598917"
       y="-0.049044069"
       width="1.1051978"
       height="1.1031715"><feOffset
         dy="0.5"
         dx="0"
         id="feOffset1059-18"
         result="result2" /><feGaussianBlur
         stdDeviation="2.0099999999999998"
         result="blur"
         id="feGaussianBlur1061-8" /><feFlood
         flood-color="rgb(0,0,0)"
         flood-opacity="1"
         result="flood"
         id="feFlood1063-3" /><feComposite
         in="flood"
         in2="SourceGraphic"
         operator="in"
         result="composite"
         id="feComposite1065-5" /><feBlend
         in2="composite"
         mode="normal"
         id="feBlend1067-2"
         in="blur"
         result="result1" /><feComposite
         id="feComposite1081-2"
         in2="SourceGraphic"
         in="result1"
         operator="in" /></filter><filter
       style="color-interpolation-filters:sRGB"
       id="filter1069-95"
       x="-0.052598917"
       y="-0.049044069"
       width="1.1051978"
       height="1.1031715"><feOffset
         dy="0.5"
         dx="0"
         id="feOffset1059-6"
         result="result2" /><feGaussianBlur
         stdDeviation="2.0099999999999998"
         result="blur"
         id="feGaussianBlur1061-2" /><feFlood
         flood-color="rgb(0,0,0)"
         flood-opacity="1"
         result="flood"
         id="feFlood1063-85" /><feComposite
         in="flood"
         in2="SourceGraphic"
         operator="in"
         result="composite"
         id="feComposite1065-9" /><feBlend
         in2="composite"
         mode="normal"
         id="feBlend1067-4"
         in="blur"
         result="result1" /><feComposite
         id="feComposite1081-39"
         in2="SourceGraphic"
         in="result1"
         operator="in" /></filter></defs><metadata
     id="metadata5"><rdf:RDF><cc:Work
         rdf:about=""><dc:format>image/svg+xml</dc:format><dc:type
           rdf:resource="http://purl.org/dc/dcmitype/StillImage" /></cc:Work></rdf:RDF></metadata><g
     id="layer1"
     transform="translate(0,-161.53332)"><rect
       style="opacity:1;fill:none;fill-opacity:1;stroke:#0f0f0f;stroke-width:2.11667;stroke-miterlimit:4;stroke-dasharray:none;stroke-opacity:0.415686"
       id="rect815"
       width="133.35001"
       height="133.35001"
       x="1.0583333"
       y="162.59164"
       ry="15.646773" /><rect
       style="opacity:1;fill:#e6e6e6;fill-opacity:1;stroke:none;stroke-width:2.08307;stroke-miterlimit:4;stroke-dasharray:none;stroke-opacity:0.415686"
       id="rect815-3-2"
       width="131.23332"
       height="131.23334"
       x="2.1166666"
       y="163.64998"
       ry="14.662473" /><rect
       style="opacity:1;fill:#e6e6e6;fill-opacity:1;stroke:none;stroke-width:2.08307;stroke-miterlimit:4;stroke-dasharray:none;stroke-opacity:0.415686;filter:url(#filter999)"
       id="rect815-3"
       width="131.23334"
       height="131.23334"
       x="2.1166666"
       y="163.64998"
       ry="14.57864" /><path
       style="display:none;fill:url(#linearGradient1077);fill-opacity:1;stroke-width:0.428055;filter:url(#filter1069)"
       d="m 53.605875,276.90066 c -0.44561,-1.00058 -1.79368,-3.26391 -2.9957,-5.02964 -2.65116,-3.89441 -3.60105,-5.68317 -3.60105,-6.78114 0,-1.27072 3.01104,-2.2713 7.91901,-2.6315 5.02084,-0.36848 5.60418,-0.56563 6.43665,-2.17545 0.92045,-1.77997 0.78791,-2.36985 -0.87194,-3.88027 -0.82401,-0.74983 -1.4982,-1.71763 -1.4982,-2.15066 0,-1.02264 -0.1685,-0.99577 -3.19951,0.51027 -1.40658,0.6989 -2.98499,1.27073 -3.50758,1.27073 -1.21795,0 -2.95302,-1.51628 -3.89711,-3.40569 -0.4476,-0.89579 -1.41473,-1.82535 -2.45146,-2.35623 -1.17881,-0.60364 -1.75876,-1.20627 -1.86164,-1.93439 -0.0822,-0.58169 -0.51558,-1.31408 -0.96312,-1.62755 -0.44753,-0.31347 -0.81665,-0.89611 -0.82026,-1.29476 -0.0131,-1.45457 -0.61482,-1.88356 -1.85147,-1.3201 -0.86243,0.39294 -1.39774,0.40048 -2.20849,0.0311 -0.93262,-0.42493 -1.07014,-0.76109 -1.07014,-2.61597 0,-3.27436 -0.79737,-6.45106 -1.61927,-6.45106 -0.5384,0 -0.57808,-0.11415 -0.17856,-0.51367 0.76108,-0.76107 0.63371,-1.07561 -0.55647,-1.37433 -0.62521,-0.15692 -1.07056,-0.57664 -1.07116,-1.00953 -5.5e-4,-0.40751 -0.76789,-1.86987 -1.70519,-3.24967 -1.95012,-2.87081 -2.5661,-4.7262 -2.57779,-7.76457 -0.014,-3.64586 -0.19723,-3.92328 -2.76595,-4.1884 -2.98386,-0.30796 -4.6842,-1.23422 -5.38895,-2.93563 -0.8786,-2.12114 -0.68703,-3.6333 1.04971,-8.28594 1.51076,-4.04726 1.78007,-4.45633 4.94153,-7.50604 1.92218,-1.85423 3.80983,-4.14536 4.44013,-5.38921 1.91463,-3.77834 4.52541,-5.39312 10.27877,-6.35745 1.16692,-0.19559 2.3632,-0.94246 4.16981,-2.60333 1.39339,-1.28098 2.92035,-2.32905 3.39326,-2.32905 0.98483,0 1.0957,0.43067 0.32475,1.26155 -0.60803,0.65531 -0.79717,0.71302 3.47071,-1.05904 3.4005,-1.41191 6.5237,-1.75957 9.04989,-1.00739 l 1.92625,0.57354 -2.74893,0.22268 c -3.03516,0.24587 -4.28393,1.29282 -1.54203,1.29282 1.90467,0 1.626,0.71499 -0.42891,1.10049 -0.81369,0.15265 -1.37343,0.44905 -1.24389,0.65866 0.35536,0.57498 2.97393,0.45832 5.72732,-0.25515 2.17267,-0.563 2.7368,-0.563 4.89828,0 1.34356,0.34995 3.0834,0.63627 3.86631,0.63627 1.94965,0 4.58466,0.98784 6.91884,2.59381 2.25417,1.55091 3.57618,1.66326 7.19436,0.61142 2.75606,-0.80121 6.03458,-0.70302 8.17858,0.24494 l 1.28416,0.56779 -1.92624,0.24651 -1.92625,0.24651 1.71222,0.34983 c 2.47211,0.50507 5.55619,1.91002 6.576215,2.99579 l 0.88171,0.93853 -2.433885,-0.01 c -3.2545,-0.0134 -3.47119,0.87665 -0.66583,2.73484 3.124995,2.06991 6.031555,2.76039 10.154525,2.41231 l 3.46557,-0.29259 -1.11184,1.13114 c -0.71353,0.72591 -1.75688,1.21765 -2.91236,1.37264 -1.27145,0.17053 -1.73555,0.41078 -1.57945,0.8176 0.38439,1.00168 -1.43544,1.5644 -4.31236,1.33347 -1.49139,-0.11971 -2.711615,-0.13411 -2.711615,-0.032 0,0.68234 3.985575,1.83842 6.366225,1.84663 2.37557,0.008 2.65895,0.0923 2.19487,0.65148 -0.29308,0.35315 -0.79823,0.64208 -1.12254,0.64208 -0.73622,0 -0.77444,0.70703 -0.0546,1.00988 0.34279,0.14423 -0.0758,0.77961 -1.16482,1.7681 l -1.69988,1.54297 1.80689,-0.28894 c 1.03761,-0.16592 1.80691,-0.11915 1.80691,0.10986 0,0.80458 -2.84156,3.10709 -4.92262,3.9888 -2.36983,1.00404 -6.634855,4.90429 -6.634855,6.06738 0,0.40897 0.22849,1.24507 0.50777,1.85802 0.44985,0.98734 0.68387,1.08467 2.05191,0.85354 1.504975,-0.25425 1.654495,-0.14745 5.893005,4.209 2.39187,2.45843 4.47287,4.96399 4.62444,5.56791 0.18995,0.75682 0.72827,1.24743 1.73227,1.57878 l 1.45668,0.48075 v 21.79759 21.79759 h -29.042675 -29.0427 z m 17.88302,-35.19557 c 3.66281,-1.89593 10.19349,-6.17457 13.79518,-9.03806 l 2.5324,-2.01335 -1.89032,-0.98874 c -1.03967,-0.54381 -2.20579,-0.99745 -2.59138,-1.00809 -0.38559,-0.0107 -5.49014,1.9719 -11.34345,4.40565 -5.8533,2.43375 -12.13164,4.96236 -13.95184,5.61915 l -3.30947,1.19415 0.74114,1.29639 c 0.40763,0.71303 2.27788,2.79988 4.15611,4.63745 l 3.41497,3.34105 2.65845,-2.91279 c 1.91661,-2.09998 3.53179,-3.36485 5.78821,-4.53281 z M 100.0759,207.67931 c 0.71889,-0.45464 0.65673,-0.48847 -2.342305,-1.27492 -1.96872,-0.51627 -5.65027,-0.61074 -5.17247,-0.13274 1.32642,1.327 6.19904,2.23973 7.514775,1.40766 z m -2.663355,-7.5632 c 1.63405,-0.43791 1.07037,-0.92342 -1.28416,-1.10608 -2.62864,-0.20391 -2.97596,-0.0591 -1.84376,0.76879 0.90041,0.65839 1.63439,0.73754 3.12792,0.33729 z"
       id="path1045"
       inkscape:label="composer" /><path
       style="font-variation-settings:normal;display:none;opacity:1;vector-effect:none;fill:url(#linearGradient1);fill-opacity:1;stroke-width:0.365997;stroke-linecap:butt;stroke-linejoin:miter;stroke-miterlimit:4;stroke-dasharray:none;stroke-dashoffset:0;stroke-opacity:1;-inkscape-stroke:none;filter:url(#filter1069);stop-color:#000000;stop-opacity:1"
       d="m 47.285091,277.22238 c 0.131148,-4.42963 0.618948,-5.93016 2.650373,-8.15286 2.389416,-2.6144 5.104696,-3.54891 10.32339,-3.55295 l 2.579687,-0.002 v -7.74429 -7.74429 l 2.513542,-2.50309 2.513541,-2.50309 2.513542,2.50309 2.513541,2.50309 v 7.74429 7.74429 l 2.579688,0.002 c 5.25239,0.004 7.847219,0.88535 10.250746,3.48144 2.104419,2.27302 2.59026,3.74042 2.723016,8.22437 l 0.107711,3.63802 H 67.865624 47.17738 Z m -2.967382,-27.76399 c 0,-0.12675 1.547812,-5.98009 3.439583,-13.00742 1.891771,-7.02733 3.432834,-12.97713 3.424585,-13.22178 -0.0085,-0.25318 -4.61532,-4.26356 -10.692665,-9.30837 -5.872717,-4.87495 -10.658233,-8.88236 -10.634481,-8.90537 0.02375,-0.023 6.055843,-0.36064 13.404644,-0.7503 7.348802,-0.38966 13.600572,-0.80165 13.892822,-0.91555 0.404103,-0.15748 1.734823,-3.22462 5.55625,-12.80646 2.763687,-6.92966 5.084417,-12.59938 5.157177,-12.59938 0.07276,0 2.39349,5.66972 5.157177,12.59938 3.832305,9.60911 5.150997,12.64758 5.55625,12.80244 0.29225,0.11168 6.54402,0.52272 13.892822,0.91343 7.348802,0.3907 13.381597,0.73044 13.406207,0.75497 0.0246,0.0245 -4.71692,3.89726 -10.536737,8.60607 -5.819816,4.7088 -10.646238,8.73021 -10.725382,8.93645 -0.07914,0.20625 1.428242,6.33432 3.349746,13.61793 1.921504,7.28362 3.453571,13.27789 3.404593,13.3206 -0.04898,0.0427 -5.324263,-4.25307 -11.722853,-9.54619 -6.398591,-5.29312 -11.696872,-9.62373 -11.773958,-9.62358 -0.112446,2.1e-4 -16.487294,13.44551 -22.189889,18.22 -0.75124,0.62897 -1.365891,1.03988 -1.365891,0.91313 z"
       id="path2"
       inkscape:label="trophy" /><path
       style="font-variation-settings:normal;display:none;opacity:1;vector-effect:none;fill:url(#linearGradient1077);fill-opacity:1;stroke-width:0.428055;stroke-linecap:butt;stroke-linejoin:miter;stroke-miterlimit:4;stroke-dasharray:none;stroke-dashoffset:0;stroke-opacity:1;-inkscape-stroke:none;filter:url(#filter1069);stop-color:#000000;stop-opacity:1"
       d="m 37.835417,278.08542 c -0.727604,-0.1974 -1.884597,-0.67383 -2.571095,-1.05874 -0.686499,-0.38491 -1.792214,-1.25166 -2.457146,-1.92612 -0.664931,-0.67446 -1.591532,-2.00319 -2.059112,-2.95274 -0.850146,-1.72644 -0.850146,-1.72644 -0.924881,-16.3717 -0.07252,-14.21164 -0.05921,-14.67009 0.449746,-15.48413 0.288464,-0.46138 8.537407,-8.83165 18.330984,-18.6006 13.01041,-12.97768 18.002479,-17.79595 18.534107,-17.88882 0.400182,-0.0699 1.055026,-0.0699 1.455208,0 0.531628,0.0929 5.523697,4.91114 18.534108,17.88882 9.793577,9.76895 18.042524,18.13922 18.330984,18.6006 0.50895,0.81404 0.52227,1.27249 0.44975,15.48413 -0.0747,14.64526 -0.0747,14.64526 -0.92489,16.3717 -0.46758,0.94955 -1.39418,2.27828 -2.05911,2.95274 -0.66493,0.67446 -1.77065,1.54078 -2.45714,1.92515 -0.686502,0.38437 -1.898275,0.86864 -2.692834,1.07615 -1.117125,0.29175 -3.531532,0.37729 -10.649478,0.37729 -9.204828,0 -9.204828,0 -9.204828,-13.49375 0,-13.49375 0,-13.49375 -10.054166,-13.49375 -10.054166,0 -10.054166,0 -10.054166,13.49375 0,13.49375 0,13.49375 -9.326562,13.47634 -6.979118,-0.013 -9.659533,-0.10775 -10.649479,-0.37632 z m -18.45097,-43.52596 c -0.398139,-0.11989 -1.125727,-0.46632 -1.616863,-0.76986 -0.491135,-0.30354 -1.199969,-0.99889 -1.575186,-1.54523 -0.375216,-0.54634 -0.819983,-1.54841 -0.98837,-2.22682 -0.253517,-1.02139 -0.230326,-1.49907 0.134878,-2.77812 0.440334,-1.54219 0.474822,-1.57847 21.626462,-22.75092 16.197852,-16.21379 21.565934,-21.43218 22.801695,-22.16586 0.888948,-0.52777 2.390176,-1.20122 3.336061,-1.49656 0.945886,-0.29533 2.672292,-0.6016 3.836459,-0.68059 1.428646,-0.0969 2.761685,-0.007 4.101041,0.27571 1.091406,0.23063 2.877344,0.85443 3.96875,1.38621 1.798261,0.87619 2.618199,1.59618 8.742317,7.6766 3.716868,3.69034 6.842258,6.70972 6.945312,6.70972 0.103053,0 0.18737,-1.42289 0.18737,-3.16198 0,-1.73908 0.127354,-3.7558 0.283008,-4.48159 0.193825,-0.90378 0.612386,-1.69382 1.328243,-2.50707 0.737551,-0.83791 1.441614,-1.31911 2.391779,-1.6347 0.851423,-0.2828 1.821796,-0.40159 2.639051,-0.32306 0.792774,0.0762 1.774463,0.42216 2.539036,0.89486 0.89402,0.55273 1.45559,1.17086 1.98583,2.18586 0.7393,1.41519 1.28212,1.43002 0.7393,11.35992 -0.52917,9.68015 -1.32292,9.41556 8.57712,18.55676 8.70076,8.03385 8.58853,8.6517 9.02138,10.15669 0.36825,1.28036 0.39198,1.75568 0.1387,2.77812 -0.16805,0.67841 -0.5936,1.67338 -0.94566,2.21104 -0.35206,0.53766 -1.15843,1.28132 -1.79193,1.65258 -0.63351,0.37126 -1.69364,0.74928 -2.35585,0.84004 -0.81887,0.11224 -1.65838,0.0179 -2.62441,-0.29504 -1.34684,-0.43624 -2.49588,-1.53241 -22.19018,-21.169 -11.423385,-11.38992 -21.029854,-20.8412 -21.347709,-21.00285 -0.317855,-0.16165 -0.950761,-0.29391 -1.406457,-0.29391 -0.455696,0 -1.088601,0.13226 -1.406456,0.29391 -0.317855,0.16165 -9.924324,9.61174 -21.347709,21.00021 -18.92086,18.86301 -20.885865,20.74466 -22.073694,21.13733 -0.717147,0.23708 -1.669647,0.42081 -2.116667,0.4083 -0.44702,-0.0125 -1.138513,-0.12082 -1.536651,-0.2407 z"
       id="path3"
       inkscape:label="home"
       sodipodi:nodetypes="sssssssscsscsssssssscsssssssssccssssssscssssssssscssssssss" /><path
       style="font-variation-settings:normal;display:none;opacity:1;vector-effect:none;fill:url(#linearGradient1077);fill-opacity:1;stroke-width:0.428055;stroke-linecap:butt;stroke-linejoin:miter;stroke-miterlimit:4;stroke-dasharray:none;stroke-dashoffset:0;stroke-opacity:1;-inkscape-stroke:none;filter:url(#filter1069);stop-color:#000000;stop-opacity:1"
       d="m 20.561804,274.97342 c 0.06227,-0.1819 5.219873,-14.64799 11.461352,-32.14687 6.241479,-17.49888 11.412544,-31.81614 11.491255,-31.81614 0.07871,0 9.424596,9.28205 20.768632,20.62679 11.344037,11.34473 20.571094,20.67812 20.504572,20.74086 -0.06652,0.0627 -14.498581,5.24677 -32.071241,11.52008 -17.57266,6.27331 -32.021726,11.40601 -32.109035,11.40601 -0.08731,0 -0.1078,-0.14883 -0.04554,-0.33073 z m 64.564645,-36.51547 c -2.442391,-2.45259 -2.442391,-2.45259 1.59162,-6.44858 2.218707,-2.1978 4.569794,-4.34705 5.224637,-4.77612 0.654844,-0.42906 1.842527,-1.05489 2.639296,-1.39073 0.934032,-0.39369 2.202938,-0.65751 3.571875,-0.74262 1.492305,-0.0928 2.634233,-0.001 3.842993,0.30802 0.94589,0.24202 2.4937,0.90363 3.43959,1.47024 1.13064,0.67728 3.12382,2.44138 5.81833,5.14963 4.09855,4.11945 4.09855,4.11945 1.71979,6.47931 -2.37875,2.35986 -2.37875,2.35986 -6.47979,-1.60341 -2.25557,-2.17979 -4.55945,-4.20305 -5.11973,-4.49613 -0.64875,-0.33936 -1.529035,-0.53287 -2.423993,-0.53287 -0.784075,0 -1.795767,0.1954 -2.2886,0.44202 -0.485816,0.24311 -2.730625,2.27618 -4.988464,4.51793 -4.105162,4.0759 -4.105162,4.0759 -6.547554,1.62331 z m -9.441995,-9.32406 c -2.367628,-2.22159 -2.367628,-2.22159 11.244791,-15.81813 12.356028,-12.34161 13.783365,-13.68299 15.464505,-14.53321 1.01864,-0.51517 2.49382,-1.08615 3.27816,-1.26884 0.85357,-0.19882 2.23441,-0.27517 3.43958,-0.19018 1.10743,0.0781 2.68642,0.39581 3.50887,0.70602 0.82246,0.31021 2.01308,0.9115 2.64584,1.3362 0.63275,0.42471 1.8946,1.5186 2.80411,2.43088 0.9095,0.91228 1.65158,1.72147 1.64906,1.79821 -0.003,0.0767 -0.99681,1.20889 -2.20954,2.51589 -2.20497,2.37637 -2.20497,2.37637 -4.09574,0.6258 -1.03992,-0.96281 -2.31397,-1.95138 -2.8312,-2.19682 -0.52121,-0.24733 -1.57695,-0.44627 -2.36831,-0.44627 -0.80519,0 -1.86652,0.20299 -2.43373,0.46547 -0.64325,0.29767 -5.75552,5.19276 -14.181259,13.5788 -7.246473,7.21232 -13.259129,13.13682 -13.361457,13.16555 -0.102329,0.0287 -1.251485,-0.94749 -2.55368,-2.16937 z m -9.119265,-9.15054 c -2.217153,-2.40415 -2.217153,-2.40415 0.668218,-5.35782 1.586954,-1.62451 5.408164,-5.51351 8.491579,-8.64221 3.525216,-3.57698 5.758756,-6.05368 6.017173,-6.67223 0.22603,-0.54103 0.410964,-1.64618 0.410964,-2.45589 0,-0.80971 -0.183331,-1.91098 -0.407403,-2.44726 -0.243192,-0.58204 -2.001735,-2.5814 -4.362904,-4.96037 -3.9555,-3.98532 -3.9555,-3.98532 -1.499719,-6.4309 2.455782,-2.44557 2.455782,-2.44557 6.700146,1.86002 3.527638,3.57853 4.403529,4.62624 5.186915,6.2044 0.520621,1.04882 1.094892,2.75126 1.282866,3.8031 0.269341,1.50714 0.27459,2.29751 0.02517,3.78973 -0.179381,1.07319 -0.729494,2.74032 -1.276948,3.86982 -0.892526,1.84144 -1.601362,2.62756 -9.841188,10.91406 -4.883663,4.91133 -8.946511,8.92969 -9.028551,8.92969 -0.08204,0 -1.146883,-1.08187 -2.366318,-2.40414 z M 57.329728,210.668 c -2.466105,-2.48324 -2.466105,-2.48324 -0.878719,-3.85841 0.873062,-0.75635 1.833981,-1.88458 2.135375,-2.50717 0.374098,-0.77279 0.547991,-1.65393 0.547991,-2.77676 0,-0.90461 -0.184372,-2.08741 -0.409716,-2.62844 -0.225343,-0.54103 -1.179003,-1.69926 -2.119245,-2.57385 -1.709529,-1.59015 -1.709529,-1.59015 0.759568,-4.04898 2.469096,-2.45883 2.469096,-2.45883 4.33038,-0.49939 1.16841,1.23003 2.212846,2.66218 2.805698,3.84722 0.519429,1.03828 1.087011,2.57389 1.261293,3.41246 0.174523,0.83973 0.253821,2.35672 0.176515,3.37677 -0.0772,1.01864 -0.371403,2.45928 -0.653786,3.20141 -0.282382,0.74213 -0.948759,1.99229 -1.480836,2.77812 -0.532077,0.78584 -1.651638,2.17838 -2.487913,3.09453 -1.5205,1.66572 -1.5205,1.66572 -3.986605,-0.81751 z"
       id="path4"
       inkscape:label="moods" /><path
       style="fill:url(#linearGradient1077);font-variation-settings:normal;opacity:1;vector-effect:none;fill-opacity:1;stroke-width:0.428055;stroke-linecap:butt;stroke-linejoin:miter;stroke-miterlimit:4;stroke-dasharray:none;stroke-dashoffset:0;stroke-opacity:1;-inkscape-stroke:none;filter:url(#filter1069);stop-color:#000000;stop-opacity:1"
       d="m 39.306653,281.90033 c -0.937071,-0.1238 -2.542973,-0.47998 -3.568673,-0.79153 -1.0257,-0.31155 -2.342599,-0.80839 -2.926444,-1.10409 -0.583844,-0.2957 -1.537785,-0.89975 -2.119868,-1.34233 -0.582084,-0.44258 -1.457266,-1.17087 -1.94485,-1.61844 -0.487583,-0.44756 -1.369033,-1.51869 -1.958778,-2.38029 -0.589744,-0.8616 -1.403681,-2.42723 -1.808749,-3.47918 -0.427315,-1.10972 -0.87519,-3.02403 -1.066894,-4.56011 -0.259023,-2.0755 -0.264039,-3.67037 -0.02322,-7.38205 0.168953,-2.60401 0.606424,-6.35475 0.972157,-8.33497 0.365733,-1.98022 1.07919,-4.8649 1.58546,-6.41041 0.506269,-1.5455 1.46919,-3.87239 2.139824,-5.17086 0.670634,-1.29847 1.791918,-3.11722 2.491741,-4.04167 0.699824,-0.92444 1.909333,-2.25346 2.687798,-2.95337 0.778465,-0.6999 2.012511,-1.6155 2.742325,-2.03465 0.729813,-0.41915 2.10084,-1.05391 3.046725,-1.41058 0.945885,-0.35667 2.426268,-0.77408 3.289739,-0.92757 0.863471,-0.15349 2.386261,-0.27907 3.383978,-0.27907 1.332616,0 2.109652,0.15066 2.927969,0.56772 0.612666,0.31225 2.287355,1.32891 3.721531,2.25924 1.434175,0.93033 3.279644,2.02745 4.101041,2.43805 0.821397,0.41061 2.250864,1.00572 3.176592,1.32249 0.925729,0.31676 2.511091,0.7501 3.523027,0.96296 1.011936,0.21287 2.84915,0.38703 4.082698,0.38703 1.233549,0 3.159934,-0.18943 4.280857,-0.42096 1.120923,-0.23154 3.202383,-0.88251 4.625467,-1.44662 1.525953,-0.60488 3.942923,-1.90361 5.891565,-3.16576 1.817277,-1.17707 3.749156,-2.32727 4.293066,-2.55599 0.773974,-0.32547 1.569074,-0.3835 3.658009,-0.26698 1.669634,0.0931 3.304361,0.36205 4.365625,0.71818 0.933098,0.31312 2.529979,0.99961 3.548625,1.52553 1.277376,0.65951 2.558292,1.65815 4.127942,3.21827 1.4721,1.46316 2.71088,3.00877 3.50761,4.37639 0.67746,1.16289 1.58191,2.95548 2.00989,3.98353 0.42798,1.02805 1.08873,2.93409 1.46833,4.23565 0.3796,1.30156 0.99703,4.09288 1.37207,6.20293 0.59191,3.33029 0.68593,4.63935 0.7126,9.92187 0.0263,5.21585 -0.0388,6.31227 -0.45603,7.67292 -0.26771,0.87313 -0.91731,2.42094 -1.44356,3.43958 -0.62591,1.21156 -1.64712,2.54828 -2.95283,3.86513 -1.57392,1.58734 -2.47879,2.24627 -4.27894,3.11594 -1.25561,0.60659 -3.101075,1.30228 -4.101043,1.54598 -1.634325,0.39829 -4.62659,0.44814 -29.599371,0.49312 -15.279687,0.0275 -28.547943,-0.0512 -29.485013,-0.17503 z m 58.488244,-6.38201 c 0.67209,-0.23788 1.684121,-0.66881 2.248953,-0.95764 0.56484,-0.28883 1.58987,-1.02139 2.27784,-1.62791 0.83623,-0.73722 1.58152,-1.77181 2.24839,-3.12114 0.99671,-2.01671 0.99762,-2.02161 1.09281,-5.92431 0.0524,-2.14827 -0.0367,-5.25058 -0.19799,-6.89403 -0.16129,-1.64345 -0.52492,-4.17872 -0.80806,-5.63393 -0.28315,-1.45521 -0.87217,-3.73881 -1.30895,-5.07467 -0.43677,-1.33586 -1.1145,-3.06226 -1.50608,-3.83646 -0.39157,-0.77419 -1.15604,-2.06262 -1.69883,-2.86318 -0.542783,-0.80055 -1.52834,-1.95466 -2.190124,-2.56467 -0.661785,-0.61001 -1.897845,-1.45592 -2.746801,-1.87979 -0.848957,-0.42388 -1.900745,-0.85778 -2.337307,-0.96423 -0.436563,-0.10644 -1.443926,-0.30002 -2.238585,-0.43016 -1.444835,-0.23662 -1.444835,-0.23662 -5.000131,2.03943 -1.955414,1.25184 -4.222269,2.57361 -5.037457,2.93727 -0.815188,0.36367 -2.137003,0.89108 -2.937368,1.17203 -0.800365,0.28095 -2.467239,0.75388 -3.704166,1.05096 -1.236928,0.29707 -3.499115,0.60223 -5.027084,0.67813 -1.948568,0.0968 -3.528675,0.008 -5.291666,-0.29883 -1.382448,-0.24026 -3.346979,-0.68395 -4.365625,-0.98597 -1.018646,-0.30203 -2.923645,-1.05105 -4.233333,-1.6645 -1.309687,-0.61344 -3.798399,-2.02722 -5.53047,-3.14171 -2.925941,-1.8827 -3.226084,-2.01579 -4.233333,-1.87726 -0.596262,0.082 -1.858019,0.374 -2.803905,0.64887 -0.945885,0.27486 -2.391723,0.92189 -3.212974,1.43783 -0.82125,0.51595 -2.106036,1.68098 -2.85508,2.58896 -0.749043,0.90798 -1.892467,2.70408 -2.540941,3.99133 -0.648474,1.28725 -1.471873,3.31131 -1.829774,4.49791 -0.357902,1.18661 -0.886452,3.34809 -1.174557,4.8033 -0.288104,1.4552 -0.650467,4.17036 -0.80525,6.03368 -0.154782,1.86331 -0.281423,4.44706 -0.281423,5.74166 0,1.2946 0.132706,2.98476 0.294901,3.7559 0.162196,0.77115 0.590234,2.03282 0.951195,2.8037 0.360962,0.77089 1.234243,1.97957 1.940625,2.68595 0.706382,0.70638 1.922454,1.59654 2.702382,1.97812 0.779928,0.38158 2.184957,0.86166 3.122287,1.06685 1.416254,0.31001 6.443396,0.36359 29.750066,0.31703 25.189903,-0.0503 28.170268,-0.10006 29.267815,-0.48852 z M 62.044791,226.75991 c -1.091406,-0.20727 -3.038796,-0.80201 -4.327534,-1.32164 -1.288737,-0.51962 -3.193737,-1.49417 -4.233333,-2.16565 -1.039596,-0.67148 -2.867594,-2.17376 -4.062219,-3.33839 -1.194624,-1.16462 -2.715936,-2.92816 -3.380692,-3.91896 -0.664757,-0.9908 -1.566545,-2.56627 -2.003975,-3.50104 -0.43743,-0.93476 -1.026214,-2.50694 -1.308408,-3.49372 -0.282195,-0.98678 -0.649011,-3.00215 -0.815147,-4.47858 -0.225533,-2.0043 -0.226187,-3.38192 -0.0026,-5.43732 0.164714,-1.51409 0.547499,-3.5921 0.850631,-4.61782 0.303132,-1.02571 1.092738,-2.91785 1.754679,-4.20476 0.661941,-1.2869 1.977172,-3.28685 2.922734,-4.44432 0.945563,-1.15747 2.674001,-2.86842 3.840974,-3.80212 1.166972,-0.93369 2.905607,-2.10863 3.863633,-2.61098 0.958026,-0.50235 2.396709,-1.16237 3.197074,-1.46672 0.800364,-0.30434 2.467239,-0.7516 3.704166,-0.99389 1.294575,-0.2536 3.484043,-0.43688 5.159375,-0.4319 1.600729,0.005 3.656614,0.14994 4.568634,0.32262 0.91202,0.17268 2.34077,0.53227 3.175,0.7991 0.83423,0.26682 2.324065,0.86684 3.310744,1.33338 0.986678,0.46654 2.713084,1.53414 3.836458,2.37245 1.123373,0.8383 2.716801,2.23709 3.54095,3.10841 0.82415,0.87132 2.028873,2.40753 2.677162,3.4138 0.64829,1.00627 1.43191,2.3297 1.741379,2.94095 0.309468,0.61125 0.758137,1.68282 0.997042,2.38125 0.238905,0.69844 0.599547,1.92473 0.801426,2.7251 0.201879,0.80036 0.440412,2.89911 0.530073,4.66387 0.1249,2.45837 0.05632,3.80127 -0.29328,5.74291 -0.250965,1.39383 -0.79401,3.43948 -1.206766,4.54589 -0.412756,1.1064 -1.22788,2.80834 -1.811386,3.78209 -0.583507,0.97374 -1.753793,2.5892 -2.600637,3.58991 -0.846844,1.0007 -2.484038,2.57536 -3.638209,3.49923 -1.154171,0.92388 -3.178233,2.22069 -4.497916,2.88181 -1.319684,0.66112 -3.351925,1.44925 -4.516091,1.7514 -1.521075,0.39477 -3.196178,0.57765 -5.953125,0.64992 -2.607634,0.0684 -4.472056,-0.0201 -5.820833,-0.27628 z m 9.789583,-6.12617 c 0.945885,-0.20894 2.731823,-0.87578 3.96875,-1.48187 1.871186,-0.91686 2.69575,-1.54876 4.908809,-3.76182 2.230501,-2.2305 2.835567,-3.02288 3.748418,-4.90881 0.598711,-1.23693 1.277013,-3.1059 1.507336,-4.15327 0.232541,-1.05746 0.41877,-3.12378 0.41877,-4.64653 0,-1.9264 -0.163578,-3.36706 -0.549845,-4.84256 -0.302414,-1.15519 -0.956573,-2.87425 -1.453687,-3.82014 -0.497113,-0.94589 -1.522471,-2.47484 -2.278572,-3.39768 -0.756101,-0.92283 -2.196815,-2.32112 -3.201586,-3.1073 -1.004771,-0.78618 -2.559718,-1.77765 -3.455438,-2.20328 -0.895719,-0.42562 -2.402486,-0.98717 -3.348372,-1.24787 -1.198482,-0.33033 -2.682208,-0.47661 -4.894791,-0.48257 -1.830463,-0.005 -3.791246,0.14471 -4.630208,0.35336 -0.800365,0.19906 -2.340794,0.76634 -3.423177,1.26064 -1.082382,0.4943 -2.570663,1.35536 -3.307291,1.91346 -0.736628,0.5581 -1.994167,1.68886 -2.794532,2.51279 -0.800364,0.82393 -1.943002,2.29948 -2.539195,3.27898 -0.596193,0.97951 -1.327185,2.43577 -1.624427,3.23614 -0.297241,0.80036 -0.690138,2.38509 -0.873104,3.52161 -0.20708,1.2863 -0.26909,2.98432 -0.16426,4.49791 0.09262,1.33734 0.343526,3.08636 0.557564,3.88673 0.214038,0.80036 0.878308,2.42404 1.476156,3.60818 0.692152,1.37092 1.756301,2.87934 2.929573,4.15264 1.013417,1.09982 2.642337,2.52949 3.619822,3.17704 0.977485,0.64754 2.491621,1.47038 3.364746,1.82852 0.873125,0.35814 2.301875,0.78727 3.175,0.95363 0.873125,0.16637 2.004218,0.34509 2.513541,0.39718 0.509323,0.0521 1.759479,0.0407 2.778125,-0.0253 1.018646,-0.066 2.62599,-0.2909 3.571875,-0.49985 z"
       id="path5"
       inkscape:label="personal" /></g></svg>
